<svg xmlns="http://www.w3.org/2000/svg" viewBox="0 0 48 48" width="48" height="48">
  <rect width="48" height="48" rx="11" fill="#1C4109"/>
  <g transform="translate(9 7) scale(1.15)">
    <path d="M13 1.4C6.5 1.4 1.4 6.4 1.4 12.5c0 6.7 8.3 14.6 11 16.9.35.3.85.3 1.2 0 2.7-2.3 11-10.2 11-16.9C24.6 6.4 19.5 1.4 13 1.4Z" fill="#FBEFD6" stroke="#356611" stroke-width="1.7"/>
    <path d="M13 19V9.2" stroke="#356611" stroke-width="1.7" stroke-linecap="round"/>
    <path d="M13 14.2C9.9 14.4 7.4 12.3 7 9.4c3.1-.2 5.6 1.9 6 4.8Z" fill="#5E9420"/>
    <path d="M13 11.4c2.6.1 4.8-1.7 5.2-4.3-2.6-.1-4.8 1.7-5.2 4.3Z" fill="#E8981C"/>
  </g>
</svg>
